# xmcd CD database file
#
# Track frame offsets:
#	150
#	15147
#	31456
#	43267
#	56753
#	69782
#	83170
#	97313
#	108161
#	113737
#	128324
#	146381
#	160557
#	171903
#	184431
#	197585
#	212297
#	224329
#	237962
#	251635
#
# Disc length: 3542 seconds
#
# Revision: 0
# Processed by: cddbd v1.5.2PL0 Copyright (c) Steve Scherf et al.
# Submitted via: CDex 1.70beta2
#
DISCID=0a0dd414
DTITLE=Various Artist - Ladies sing Jazz - CD5
DYEAR=1900
DGENRE=Jazz
TTITLE0=Georgia On My Mind - Billie Holiday
TTITLE1=My Baby Just Cares For Me - Nina Simone
TTITLE2=A Tisket - A Tasket Ella Fitzgerald
TTITLE3=Aint Misbehavin - Sarah Vaughan
TTITLE4=Embraceable You - Dinah Washington
TTITLE5=Just One Of Those Things - Peggy Lee
TTITLE6=Love For Sale - Astrud Gilberto
TTITLE7=Zing Went The Strings Of My Heart - Dinah Shore
TTITLE8=Thou Swell - Carmen Mcrae
TTITLE9=Pennies From Heaven - Billie Holiday
TTITLE10=Mood Indigo - Nina Simone
TTITLE11=For Sentimental Reasons - Ella Fitzgerald
TTITLE12=Wild Wild Young Men - Ruth Brown
TTITLE13=Sometimes I Feel Like A Motherless Child - Sarah Vaughan
TTITLE14=My Song - Dinah Washington
TTITLE15=How Long Has This Been Going On - Peggy Lee
TTITLE16=Dear Hearts And Gentle People - Dinah Shore
TTITLE17=Sing Song Swing - Ella Fitzgerald
TTITLE18=I`m Glad There Is You - Sarah Vaughan
TTITLE19=Don`t Smoke In Bed - Peggy Lee
EXTD=
EXTT0=
EXTT1=
EXTT2=
EXTT3=
EXTT4=
EXTT5=
EXTT6=
EXTT7=
EXTT8=
EXTT9=
EXTT10=
EXTT11=
EXTT12=
EXTT13=
EXTT14=
EXTT15=
EXTT16=
EXTT17=
EXTT18=
EXTT19=
PLAYORDER=
